#!OML:ASF I:\Actors\actors\Patient Classification 1\Patient 1\Session 1\Subject1.ASF
:FULLY-SPECIFIED
:DEGREES
796
root 0.752851 17.4606 9.93672 9.97843 6.42925 -8.12033
lowerback -2.9211 1.2827 6.89823
upperback -12.5215 2.17366 1.32887
thorax -11.6829 0.463062 -2.54861
lowerneck -12.2415 1.47381 2.6787
upperneck 24.3402 2.71526 -4.62192
head 9.82521 1.00724 -1.73931
rclavicle 1.2424e-014 -1.82882e-014
rhumerus -54.2396 -26.0632 -56.5127
rradius 26.4349
rwrist 43.9036
rhand 5.79417 -30.457
rfingers 7.12502
rthumb 31.1272 -57.8341
lclavicle 1.2424e-014 -1.82882e-014
lhumerus 22.2281 -12.2814 60.976
lradius 147.805
lwrist 44.4771
lhand -2.65666 -10.235
lfingers 7.12502
lthumb 23.0434 18.4074
rfemur -0.479062 24.2013 26.7579
rtibia 1.01817
rfoot -17.7322 -32.7247
rtoes 10.3521
lfemur 5.30201 -48.0856 -12.8809
ltibia -5.19108
lfoot -17.512 50.279
ltoes 4.25332
797
root 0.745117 17.4592 9.9399 9.95631 6.47939 -8.20498
lowerback -2.96979 1.26625 6.81149
upperback -12.533 2.14489 1.33262
thorax -11.6703 0.45869 -2.49358
lowerneck -12.1594 1.50897 2.6732
upperneck 24.2263 2.71573 -4.43841
head 9.76617 1.0296 -1.67302
rclavicle 9.93923e-015 4.69132e-014
rhumerus -54.1514 -26.003 -56.5716
rradius 26.4194
rwrist 43.8548
rhand 5.70403 -30.4779
rfingers 7.12502
rthumb 31.0413 -57.8716
lclavicle 9.93923e-015 4.69132e-014
lhumerus 22.2922 -12.2567 60.788
lradius 147.712
lwrist 44.3627
lhand -2.92731 -10.383
lfingers 7.12502
lthumb 22.7837 18.2915
rfemur -0.458153 24.1471 26.9025
rtibia 1.03245
rfoot -17.7219 -32.712
rtoes 10.3547
lfemur 5.3395 -48.1694 -12.7716
ltibia -5.20162
lfoot -17.7187 50.3126
ltoes 4.46345
798
root 0.738507 17.4587 9.94192 9.93892 6.50258 -8.21169
lowerback -2.99036 1.29157 6.68295
upperback -12.5486 2.16861 1.27579
thorax -11.6723 0.479732 -2.48533
lowerneck -12.1509 1.48798 2.65385
upperneck 24.1726 2.64193 -4.25741
head 9.73957 1.01432 -1.61474
rclavicle 1.82882e-014 -8.34896e-015
rhumerus -54.1968 -26.0085 -56.5753
rradius 26.4805
rwrist 43.7951
rhand 5.6335 -30.4514
rfingers 7.12502
rthumb 30.974 -57.8578
lclavicle 1.82882e-014 -8.34896e-015
lhumerus 22.3896 -12.3683 60.6709
lradius 147.621
lwrist 44.0723
lhand -3.33243 -10.4943
lfingers 7.12502
lthumb 22.3949 18.2276
rfemur -0.439808 24.0845 26.9408
rtibia 1.02006
rfoot -17.6641 -32.6932
rtoes 10.2245
lfemur 5.36392 -48.1632 -12.7491
ltibia -5.20965
lfoot -17.733 50.3151
ltoes 4.28657
799
root 0.73266 17.459 9.94337 9.9135 6.54689 -8.21575
lowerback -2.97999 1.32271 6.59522
upperback -12.5624 2.20268 1.19838
thorax -11.6891 0.499768 -2.52341
lowerneck -12.2576 1.41431 2.52186
upperneck 24.2287 2.49334 -3.96674
head 9.76849 0.964024 -1.50863
rclavicle -1.0635e-014 1.98785e-015
rhumerus -54.2781 -26.0923 -56.528
rradius 26.5202
rwrist 43.7664
rhand 5.65925 -30.4645
rfingers 7.12502
rthumb 30.9986 -57.8663
lclavicle -1.0635e-014 1.98785e-015
lhumerus 22.532 -12.3948 60.6362
lradius 147.543
lwrist 44.0304
lhand -3.40913 -10.5969
lfingers 7.12502
lthumb 22.3213 18.1338
rfemur -0.422569 23.9661 26.9682
rtibia 1.0212
rfoot -17.6405 -32.631
rtoes 10.2245
lfemur 5.32967 -47.9915 -12.6843
ltibia -5.22035
lfoot -17.2454 50.1939
ltoes 3.50441
800
root 0.72781 17.4589 9.94372 9.89783 6.60504 -8.25774
lowerback -3.16069 1.30297 6.46315
upperback -12.4465 2.15131 1.2315
thorax -11.4484 0.500494 -2.40586
lowerneck -12.4315 1.41118 2.2912
upperneck 24.1948 2.44775 -3.61849
head 9.78084 0.958877 -1.35214
rclavicle -2.37548e-014 2.3059e-014
rhumerus -53.9878 -26.2324 -56.5381
rradius 26.4304
rwrist 43.8899
rhand 5.71918 -30.3962
rfingers 7.12502
rthumb 31.0557 -57.7871
lclavicle -2.37548e-014 2.3059e-014
lhumerus 22.7427 -12.1411 60.6316
lradius 147.45
lwrist 44.1638
lhand -3.27832 -10.7146
lfingers 7.12502
lthumb 22.4468 18.0009
rfemur -0.435522 23.8054 27.0231
rtibia 1.04006
rfoot -17.6277 -32.5263
rtoes 10.2121
lfemur 5.22433 -47.7534 -12.5228
ltibia -5.22019
lfoot -16.8106 50.004
ltoes 2.94195
801
root 0.724318 17.4587 9.94405 9.88524 6.63238 -8.27005
lowerback -3.71783 1.19147 6.08627
upperback -12.0509 1.9382 1.47469
thorax -10.6766 0.478621 -1.90826
lowerneck -12.7803 1.55927 2.09382
upperneck 23.9476 2.65638 -3.49796
head 9.76283 1.04848 -1.24773
rclavicle 3.77691e-015 -6.75868e-015
rhumerus -52.9492 -26.2998 -56.8125
rradius 26.2338
rwrist 44.0471
rhand 5.72338 -30.3149
rfingers 7.12502
rthumb 31.0597 -57.705
lclavicle 3.77691e-015 -6.75868e-015
lhumerus 23.0866 -11.4953 60.6555
lradius 147.35
lwrist 44.0949
lhand -3.30506 -10.7829
lfingers 7.12502
lthumb 22.4212 17.9358
rfemur -0.441975 23.7066 27.0449
rtibia 1.04936
rfoot -17.5575 -32.4745
rtoes 10.0114
lfemur 5.17849 -47.6297 -12.4521
ltibia -5.2209
lfoot -16.5582 49.898
ltoes 2.65359
802
root 0.722195 17.4581 9.94521 9.88774 6.63067 -8.26423
lowerback -3.76564 1.20834 6.02082
upperback -12.0485 1.95289 1.44565
thorax -10.6433 0.491527 -1.90297
lowerneck -12.8158 1.58251 2.08293
upperneck 23.9968 2.66084 -3.37022
head 9.78524 1.06347 -1.20079
rclavicle -4.96962e-016 -8.74653e-015
rhumerus -52.9286 -26.3108 -56.8235
rradius 26.2016
rwrist 44.0463
rhand 5.68299 -30.3543
rfingers 7.12502
rthumb 31.0212 -57.7518
lclavicle -4.96962e-016 -8.74653e-015
lhumerus 23.1288 -11.4825 60.6577
lradius 147.289
lwrist 44.0174
lhand -3.36594 -10.7714
lfingers 7.12502
lthumb 22.3627 17.9543
rfemur -0.464258 23.627 27.0343
rtibia 1.07051
rfoot -17.4836 -32.4071
rtoes 9.87126
lfemur 5.18463 -47.6362 -12.4538
ltibia -5.23003
lfoot -16.4518 49.9052
ltoes 2.47548
803
root 0.720795 17.4572 9.94622 9.89375 6.63322 -8.29699
lowerback -3.80912 1.22676 6.02565
upperback -12.0562 1.97283 1.42125
thorax -10.6238 0.499992 -1.93188
lowerneck -12.7935 1.59277 2.13414
upperneck 24.0159 2.65426 -3.32988
head 9.78766 1.06989 -1.1964
rclavicle -1.95803e-014 1.59028e-014
rhumerus -52.9981 -26.3825 -56.7445
rradius 26.2206
rwrist 44.1525
rhand 5.71259 -30.3582
rfingers 7.12502
rthumb 31.0494 -57.7503
lclavicle -1.95803e-014 1.59028e-014
lhumerus 23.1774 -11.4758 60.6446
lradius 147.254
lwrist 43.9353
lhand -3.39662 -10.7448
lfingers 7.12502
lthumb 22.3333 17.9844
rfemur -0.502751 23.5069 27.0558
rtibia 1.10039
rfoot -17.4456 -32.2815
rtoes 9.81375
lfemur 5.18277 -47.689 -12.419
ltibia -5.21045
lfoot -16.4842 49.9614
ltoes 2.44321
804
root 0.718886 17.4569 9.94703 9.85826 6.62944 -8.33336
lowerback -3.78602 1.23992 6.02984
upperback -12.0606 1.99106 1.39911
thorax -10.6404 0.50668 -1.95945
lowerneck -12.7864 1.60106 2.14306
upperneck 24.0546 2.64308 -3.24176
head 9.79858 1.07546 -1.16873
rclavicle 2.5842e-015 -5.96354e-015
rhumerus -53.0448 -26.4038 -56.7021
rradius 26.2276
rwrist 44.2306
rhand 5.75823 -30.2191
rfingers 7.12502
rthumb 31.0929 -57.6029
lclavicle 2.5842e-015 -5.96354e-015
lhumerus 23.2024 -11.458 60.6155
lradius 147.253
lwrist 43.933
lhand -3.44083 -10.6934
lfingers 7.12502
lthumb 22.2908 18.0409
rfemur -0.487141 23.4268 27.1087
rtibia 1.12567
rfoot -17.4134 -32.2118
rtoes 9.70088
lfemur 5.24553 -47.6945 -12.4235
ltibia -5.19915
lfoot -16.5945 49.9661
ltoes 2.56593
805
root 0.717222 17.4567 9.94826 9.80082 6.6145 -8.34203
lowerback -3.73956 1.28014 6.02052
upperback -12.0699 2.04376 1.32867
thorax -10.6721 0.528161 -2.03381
lowerneck -12.7483 1.57817 2.22445
upperneck 24.0879 2.57558 -3.17191
head 9.80105 1.05981 -1.16678
rclavicle -1.92821e-014 -2.66371e-014
rhumerus -53.1378 -26.4421 -56.6946
rradius 26.2069
rwrist 44.2251
rhand 5.72032 -30.1423
rfingers 7.12502
rthumb 31.0568 -57.533
lclavicle -1.92821e-014 -2.66371e-014
lhumerus 23.2589 -11.5164 60.5697
lradius 147.255
lwrist 44.019
lhand -3.45505 -10.6116
lfingers 7.12502
lthumb 22.2772 18.1243
rfemur -0.42522 23.3782 27.1473
rtibia 1.13446
rfoot -17.3633 -32.1863
rtoes 9.53182
lfemur 5.37066 -47.6832 -12.5002
ltibia -5.21807
lfoot -16.8129 49.9512
ltoes 2.87864
